<?xml version="1.0" encoding="UTF-8" standalone="no"?>
<!-- Created with Inkscape (http://www.inkscape.org/) -->

<svg
   xmlns:dc="http://purl.org/dc/elements/1.1/"
   xmlns:cc="http://creativecommons.org/ns#"
   xmlns:rdf="http://www.w3.org/1999/02/22-rdf-syntax-ns#"
   xmlns:svg="http://www.w3.org/2000/svg"
   xmlns="http://www.w3.org/2000/svg"
   xmlns:sodipodi="http://sodipodi.sourceforge.net/DTD/sodipodi-0.dtd"
   xmlns:inkscape="http://www.inkscape.org/namespaces/inkscape"
   width="0.5in"
   height="1in"
   viewBox="0 0 12.7 25.4"
   version="1.1"
   id="svg8"
   inkscape:version="0.92.2 (5c3e80d, 2017-08-06)"
   sodipodi:docname=";.svg">
  <defs
     id="defs2" />
  <sodipodi:namedview
     id="base"
     pagecolor="#ffffff"
     bordercolor="#666666"
     borderopacity="1.0"
     inkscape:pageopacity="0.0"
     inkscape:pageshadow="2"
     inkscape:zoom="4.92"
     inkscape:cx="55.40504"
     inkscape:cy="11.581252"
     inkscape:document-units="mm"
     inkscape:current-layer="layer1"
     showgrid="false"
     units="in"
     inkscape:window-width="1366"
     inkscape:window-height="705"
     inkscape:window-x="-8"
     inkscape:window-y="-8"
     inkscape:window-maximized="1" />
  <metadata
     id="metadata5">
    <rdf:RDF>
      <cc:Work
         rdf:about="">
        <dc:format>image/svg+xml</dc:format>
        <dc:type
           rdf:resource="http://purl.org/dc/dcmitype/StillImage" />
        <dc:title></dc:title>
      </cc:Work>
    </rdf:RDF>
  </metadata>
  <g
     inkscape:label="Layer 1"
     inkscape:groupmode="layer"
     id="layer1"
     transform="translate(0,-271.60002)">
    <path
       style="opacity:1;vector-effect:none;fill:none;fill-opacity:1;stroke:#000000;stroke-width:0.05944346;stroke-linecap:butt;stroke-linejoin:miter;stroke-miterlimit:4;stroke-dasharray:none;stroke-dashoffset:0;stroke-opacity:1"
       d="m 5.0884803,293.5713 c -0.091713,0.46845 -0.021996,0.83573 -0.086297,1.41773 -0.064302,0.582 -0.1231842,1.60767 -0.3319576,2.06644 -0.2087734,0.45876 -0.3848553,0.47253 -0.5962974,0.7154 -0.211442,0.24286 -0.4039622,0.48604 -0.673188,0.74046 -0.2692258,0.25441 -0.6376376,0.50695 -0.9490261,0.76947"
       id="path861"
       inkscape:connector-curvature="0"
       sodipodi:nodetypes="czzzzc" />
    <path
       style="opacity:1;vector-effect:none;fill:none;fill-opacity:1;stroke:#000000;stroke-width:0.05944346;stroke-linecap:butt;stroke-linejoin:miter;stroke-miterlimit:4;stroke-dasharray:none;stroke-dashoffset:0;stroke-opacity:1"
       d="m 4.839939,288.07302 c -0.090377,-0.015 -0.2079296,0.0437 -0.2738353,-0.0465 -0.08251,-0.0693 -0.195273,-0.10685 -0.2486113,-0.20715 -0.041651,-0.0806 -0.132694,-0.11481 -0.1794899,-0.19151 -0.052655,-0.0695 -0.066357,-0.15893 -0.051907,-0.24354 0.00955,-0.0995 -0.025496,-0.21155 0.041176,-0.2985 0.052213,-0.0901 0.1247948,-0.17112 0.2226148,-0.21214 0.077444,-0.0454 0.1583721,-0.10651 0.25381,-0.0912 0.103123,0.003 0.2072385,-0.006 0.3093992,0.0126 0.082387,0.0593 0.1367284,0.15041 0.218194,0.21004 0.046382,0.0756 0.1054129,0.13977 0.1743683,0.19458 0.07778,0.0771 0.1486514,0.16622 0.1798371,0.27278 0.040975,0.074 0.06838,0.15653 0.054618,0.24175 -0.00803,0.088 -0.00934,0.17665 0.00544,0.26389 3.429e-4,0.13309 -0.1183004,0.22111 -0.2077061,0.30119 l -0.013918,0.0104"
       id="path884"
       inkscape:connector-curvature="0" />
  </g>
</svg>
