<?xml version="1.0" encoding="UTF-8" standalone="no"?>
<!-- Created with Inkscape (http://www.inkscape.org/) -->

<svg
   xmlns:dc="http://purl.org/dc/elements/1.1/"
   xmlns:cc="http://creativecommons.org/ns#"
   xmlns:rdf="http://www.w3.org/1999/02/22-rdf-syntax-ns#"
   xmlns:svg="http://www.w3.org/2000/svg"
   xmlns="http://www.w3.org/2000/svg"
   xmlns:sodipodi="http://sodipodi.sourceforge.net/DTD/sodipodi-0.dtd"
   xmlns:inkscape="http://www.inkscape.org/namespaces/inkscape"
   width="12.7mm"
   height="25.4mm"
   viewBox="0 0 12.700001 25.4"
   version="1.1"
   id="svg8"
   inkscape:version="0.92.2 (5c3e80d, 2017-08-06)"
   sodipodi:docname="a.svg">
  <defs
     id="defs2" />
  <sodipodi:namedview
     id="base"
     pagecolor="#ffffff"
     bordercolor="#666666"
     borderopacity="1.0"
     inkscape:pageopacity="0.0"
     inkscape:pageshadow="2"
     inkscape:zoom="5.27"
     inkscape:cx="23.703983"
     inkscape:cy="48.597029"
     inkscape:document-units="mm"
     inkscape:current-layer="layer1"
     showgrid="false"
     units="mm"
     inkscape:window-width="1366"
     inkscape:window-height="705"
     inkscape:window-x="-8"
     inkscape:window-y="-8"
     inkscape:window-maximized="1"
     inkscape:snap-global="false" />
  <metadata
     id="metadata5">
    <rdf:RDF>
      <cc:Work
         rdf:about="">
        <dc:format>image/svg+xml</dc:format>
        <dc:type
           rdf:resource="http://purl.org/dc/dcmitype/StillImage" />
        <dc:title />
      </cc:Work>
    </rdf:RDF>
  </metadata>
  <g
     inkscape:label="Layer 1"
     inkscape:groupmode="layer"
     id="layer1"
     transform="translate(0,-271.60002)">
    <path
       style="opacity:1;vector-effect:none;fill:none;fill-opacity:1;stroke:#000000;stroke-width:0.95015746;stroke-linecap:butt;stroke-linejoin:miter;stroke-miterlimit:4;stroke-dasharray:none;stroke-dashoffset:0;stroke-opacity:1"
       d="m 11.480145,286.92294 c 0,0 -2.6056483,-0.52129 -3.9047509,-0.50027 -1.2991026,0.021 -2.4087878,0.0592 -3.1009641,0.0654 -0.6921768,0.005 -1.1788367,0.51792 -1.7125319,0.66164 -0.5336941,0.14378 -0.4662843,0.30169 -0.8984122,0.73592 -0.432128,0.43423 -0.7762982,1.21384 -0.9466213,1.73823 -0.17032174,0.52439 -0.124874,0.8455 -0.16714919,1.33879 -0.0422821,0.49329 -0.16353632,0.9683 -0.075744,1.61999 0.0878008,0.65167 0.34164229,1.66562 0.72024109,2.22974 0.3785988,0.56413 0.6704622,0.938 1.1874489,1.19045 0.5169867,0.25246 0.5831892,0.37486 1.2193452,0.40096 0.6361531,0.0262 1.4588848,-0.10406 2.0861404,-0.25732 0.6272561,-0.15322 2.7501365,-0.8228 3.0331402,-1.18055 0.283005,-0.35775 0.3290367,-0.27161 0.344806,-0.63994 0.015763,-0.36832 0.066999,-1.04336 0.047555,-1.17041 -0.019451,-0.127 -0.3076862,-6.17693 -0.3076862,-6.17693 0,0 0.9294532,0.76709 0.6032509,2.06462 -0.1439327,0.57254 -0.1372337,2.2569 -0.1519445,2.84269 -0.026656,1.06175 -0.3330839,2.55748 0.1951921,3.22983 0.5282725,0.67238 0.5987545,1.0506 1.0920145,1.25476 0.493258,0.20416 1.564123,-0.34383 1.564123,-0.34383"
       id="path4506"
       inkscape:connector-curvature="0"
       sodipodi:nodetypes="czzzzzzzzzzzzzzcsszzc" />
  </g>
</svg>
