<?xml version="1.0" encoding="UTF-8" standalone="no"?>
<!-- Created with Inkscape (http://www.inkscape.org/) -->

<svg
   xmlns:dc="http://purl.org/dc/elements/1.1/"
   xmlns:cc="http://creativecommons.org/ns#"
   xmlns:rdf="http://www.w3.org/1999/02/22-rdf-syntax-ns#"
   xmlns:svg="http://www.w3.org/2000/svg"
   xmlns="http://www.w3.org/2000/svg"
   xmlns:sodipodi="http://sodipodi.sourceforge.net/DTD/sodipodi-0.dtd"
   xmlns:inkscape="http://www.inkscape.org/namespaces/inkscape"
   width="0.5in"
   height="1in"
   viewBox="0 0 12.7 25.4"
   version="1.1"
   id="svg8"
   inkscape:version="0.92.2 (5c3e80d, 2017-08-06)"
   sodipodi:docname="c.svg">
  <defs
     id="defs2" />
  <sodipodi:namedview
     id="base"
     pagecolor="#ffffff"
     bordercolor="#666666"
     borderopacity="1.0"
     inkscape:pageopacity="0.0"
     inkscape:pageshadow="2"
     inkscape:zoom="4.92"
     inkscape:cx="-12.277887"
     inkscape:cy="48.597029"
     inkscape:document-units="mm"
     inkscape:current-layer="layer1"
     showgrid="false"
     units="in"
     inkscape:window-width="1366"
     inkscape:window-height="705"
     inkscape:window-x="-8"
     inkscape:window-y="-8"
     inkscape:window-maximized="1"
     inkscape:snap-global="false" />
  <metadata
     id="metadata5">
    <rdf:RDF>
      <cc:Work
         rdf:about="">
        <dc:format>image/svg+xml</dc:format>
        <dc:type
           rdf:resource="http://purl.org/dc/dcmitype/StillImage" />
        <dc:title />
      </cc:Work>
    </rdf:RDF>
  </metadata>
  <g
     inkscape:label="Layer 1"
     inkscape:groupmode="layer"
     id="layer1"
     transform="translate(0,-271.60002)">
    <path
       style="opacity:1;vector-effect:none;fill:none;fill-opacity:1;stroke:#000000;stroke-width:0.5542146;stroke-linecap:butt;stroke-linejoin:miter;stroke-miterlimit:4;stroke-dasharray:none;stroke-dashoffset:0;stroke-opacity:1"
       d="m 11.24608,286.56527 c -0.704066,-0.46673 -0.959975,-0.59334 -1.6978665,-1.00376 -0.6670227,-0.37101 -1.362101,-0.7648 -2.1111016,-0.85796 -0.9174574,-0.11412 -1.8798921,0.0516 -2.7469745,0.38755 -0.6437532,0.24946 -1.2809827,0.62725 -1.7306066,1.17317 -0.8140842,0.98842 -1.2474156,2.30021 -1.5549525,3.56836 -0.1906881,0.7863 -0.2950182,1.62954 -0.1614331,2.42882 0.161667,0.96731 0.5031425,1.9717 1.1365701,2.69213 0.5580427,0.63467 1.3808694,0.98539 2.1676771,1.23243 0.7842106,0.24625 1.6282561,0.18941 2.4460738,0.2181 1.0469874,0.0367 1.255631,-0.11415 2.2074092,-0.55178 1.2203676,-0.56113 2.2091206,-1.36074 2.2091206,-1.36074"
       id="path839"
       inkscape:connector-curvature="0"
       sodipodi:nodetypes="cssssssssssc" />
  </g>
</svg>
