<?xml version="1.0" encoding="UTF-8" standalone="no"?>
<!-- Created with Inkscape (http://www.inkscape.org/) -->

<svg
   xmlns:dc="http://purl.org/dc/elements/1.1/"
   xmlns:cc="http://creativecommons.org/ns#"
   xmlns:rdf="http://www.w3.org/1999/02/22-rdf-syntax-ns#"
   xmlns:svg="http://www.w3.org/2000/svg"
   xmlns="http://www.w3.org/2000/svg"
   xmlns:sodipodi="http://sodipodi.sourceforge.net/DTD/sodipodi-0.dtd"
   xmlns:inkscape="http://www.inkscape.org/namespaces/inkscape"
   width="12.7mm"
   height="25.4mm"
   viewBox="0 0 12.700001 25.4"
   version="1.1"
   id="svg8"
   inkscape:version="0.92.2 (5c3e80d, 2017-08-06)"
   sodipodi:docname="colon.svg">
  <defs
     id="defs2" />
  <sodipodi:namedview
     id="base"
     pagecolor="#ffffff"
     bordercolor="#666666"
     borderopacity="1.0"
     inkscape:pageopacity="0.0"
     inkscape:pageshadow="2"
     inkscape:zoom="4.59"
     inkscape:cx="12.993463"
     inkscape:cy="48.597029"
     inkscape:document-units="mm"
     inkscape:current-layer="layer1"
     showgrid="false"
     units="mm"
     inkscape:window-width="1366"
     inkscape:window-height="705"
     inkscape:window-x="-8"
     inkscape:window-y="-8"
     inkscape:window-maximized="1"
     inkscape:snap-global="false" />
  <metadata
     id="metadata5">
    <rdf:RDF>
      <cc:Work
         rdf:about="">
        <dc:format>image/svg+xml</dc:format>
        <dc:type
           rdf:resource="http://purl.org/dc/dcmitype/StillImage" />
        <dc:title></dc:title>
      </cc:Work>
    </rdf:RDF>
  </metadata>
  <g
     inkscape:label="Layer 1"
     inkscape:groupmode="layer"
     id="layer1"
     transform="translate(0,-271.60002)">
    <path
       style="opacity:1;vector-effect:none;fill:none;fill-opacity:1;stroke:#000000;stroke-width:0.06800415;stroke-linecap:butt;stroke-linejoin:miter;stroke-miterlimit:4;stroke-dasharray:none;stroke-dashoffset:0;stroke-opacity:1"
       d="m 6.8233885,281.27843 c -0.6639537,0.29661 -1.4802042,-0.31266 -2.0594101,0.19617 -0.4331647,0.58755 -0.5541988,1.38868 -0.5567389,2.10931 0.00995,0.81821 0.8664127,0.99508 1.4558161,1.24108 0.5034896,0.1654 1.0758474,0.21838 1.5849934,0.0557 0.5234691,-0.22759 0.884099,-0.81423 0.8080375,-1.39651 0.085762,-0.57981 -0.01205,-1.2566 -0.5325003,-1.59999 -0.2431347,-0.1881 -0.5289703,-0.33855 -0.7001977,-0.60583 z"
       id="path2533"
       inkscape:connector-curvature="0" />
    <path
       style="opacity:1;vector-effect:none;fill:none;fill-opacity:1;stroke:#000000;stroke-width:0.05944346;stroke-linecap:butt;stroke-linejoin:miter;stroke-miterlimit:4;stroke-dasharray:none;stroke-dashoffset:0;stroke-opacity:1"
       d="m 6.3407771,290.48631 c -0.5743068,0.0839 -1.1927598,-0.16684 -1.733441,0.12308 -0.4013155,0.49466 -0.743088,1.07947 -0.7142805,1.73899 -0.048339,0.59129 0.3300489,1.08882 0.8094622,1.38563 0.5358852,0.41773 1.2050968,0.6868 1.8924027,0.62222 0.7038922,0.0101 1.5099345,-0.38832 1.6908518,-1.1112 0.042842,-0.58025 -0.012763,-1.16518 0.027062,-1.74403 -0.079521,-0.53559 -0.6050173,-0.8258 -1.0241704,-1.07889 -0.2790486,-0.099 -0.7352222,-0.18699 -0.9478865,0.0642 z"
       id="path2535"
       inkscape:connector-curvature="0" />
  </g>
</svg>
