<?xml version="1.0" encoding="UTF-8" standalone="no"?>
<!-- Created with Inkscape (http://www.inkscape.org/) -->

<svg
   xmlns:dc="http://purl.org/dc/elements/1.1/"
   xmlns:cc="http://creativecommons.org/ns#"
   xmlns:rdf="http://www.w3.org/1999/02/22-rdf-syntax-ns#"
   xmlns:svg="http://www.w3.org/2000/svg"
   xmlns="http://www.w3.org/2000/svg"
   xmlns:sodipodi="http://sodipodi.sourceforge.net/DTD/sodipodi-0.dtd"
   xmlns:inkscape="http://www.inkscape.org/namespaces/inkscape"
   width="0.5in"
   height="1in"
   viewBox="0 0 12.7 25.4"
   version="1.1"
   id="svg8"
   inkscape:version="0.92.2 (5c3e80d, 2017-08-06)"
   sodipodi:docname="h.svg">
  <defs
     id="defs2" />
  <sodipodi:namedview
     id="base"
     pagecolor="#ffffff"
     bordercolor="#666666"
     borderopacity="1.0"
     inkscape:pageopacity="0.0"
     inkscape:pageshadow="2"
     inkscape:zoom="4.92"
     inkscape:cx="-13.903904"
     inkscape:cy="50.985143"
     inkscape:document-units="mm"
     inkscape:current-layer="layer1"
     showgrid="false"
     units="in"
     inkscape:window-width="1366"
     inkscape:window-height="705"
     inkscape:window-x="-8"
     inkscape:window-y="-8"
     inkscape:window-maximized="1" />
  <metadata
     id="metadata5">
    <rdf:RDF>
      <cc:Work
         rdf:about="">
        <dc:format>image/svg+xml</dc:format>
        <dc:type
           rdf:resource="http://purl.org/dc/dcmitype/StillImage" />
        <dc:title />
      </cc:Work>
    </rdf:RDF>
  </metadata>
  <g
     inkscape:label="Layer 1"
     inkscape:groupmode="layer"
     id="layer1"
     transform="translate(0,-271.60002)">
    <path
       style="opacity:1;vector-effect:none;fill:none;fill-opacity:1;stroke:#000000;stroke-width:0.05944346;stroke-linecap:butt;stroke-linejoin:miter;stroke-miterlimit:4;stroke-dasharray:none;stroke-dashoffset:0;stroke-opacity:1"
       d="m 1.8284214,273.92964 c 0,0 0.1423234,5.61235 0.2151084,7.25991 0.05383,1.2185 -0.060185,2.4266 4.3e-6,3.6448 0.077621,1.57102 0.00972,3.1461 0.049256,4.71854 0.03489,1.3877 0.1195068,2.77375 0.1658472,4.16112 0.022213,0.66502 -1e-7,3.33989 -1e-7,3.33989 0,0 -0.098645,-4.47333 0.1695016,-6.00353 0.1564456,-0.89277 0.231652,-1.92682 0.8608057,-2.57926 0.9363745,-0.97103 2.4497057,-1.57528 3.7896664,-1.41973 1.2922907,0.15001 2.5363232,1.0784 3.2439961,2.17006 0.527816,0.81421 0.395119,1.90377 0.48984,2.86946 0.128285,1.30788 0.05133,3.49845 0.211891,4.80154"
       id="path3590"
       inkscape:connector-curvature="0"
       sodipodi:nodetypes="csssscsssssc" />
  </g>
</svg>
