<?xml version="1.0" encoding="UTF-8" standalone="no"?>
<!-- Created with Inkscape (http://www.inkscape.org/) -->

<svg
   xmlns:dc="http://purl.org/dc/elements/1.1/"
   xmlns:cc="http://creativecommons.org/ns#"
   xmlns:rdf="http://www.w3.org/1999/02/22-rdf-syntax-ns#"
   xmlns:svg="http://www.w3.org/2000/svg"
   xmlns="http://www.w3.org/2000/svg"
   xmlns:sodipodi="http://sodipodi.sourceforge.net/DTD/sodipodi-0.dtd"
   xmlns:inkscape="http://www.inkscape.org/namespaces/inkscape"
   width="0.5in"
   height="1in"
   viewBox="0 0 12.7 25.4"
   version="1.1"
   id="svg8"
   inkscape:version="0.92.2 (5c3e80d, 2017-08-06)"
   sodipodi:docname="k.svg">
  <defs
     id="defs2" />
  <sodipodi:namedview
     id="base"
     pagecolor="#ffffff"
     bordercolor="#666666"
     borderopacity="1.0"
     inkscape:pageopacity="0.0"
     inkscape:pageshadow="2"
     inkscape:zoom="4.92"
     inkscape:cx="-13.903904"
     inkscape:cy="41.383875"
     inkscape:document-units="mm"
     inkscape:current-layer="layer1"
     showgrid="false"
     units="in"
     inkscape:window-width="1366"
     inkscape:window-height="705"
     inkscape:window-x="-8"
     inkscape:window-y="-8"
     inkscape:window-maximized="1"
     inkscape:snap-global="false" />
  <metadata
     id="metadata5">
    <rdf:RDF>
      <cc:Work
         rdf:about="">
        <dc:format>image/svg+xml</dc:format>
        <dc:type
           rdf:resource="http://purl.org/dc/dcmitype/StillImage" />
        <dc:title />
      </cc:Work>
    </rdf:RDF>
  </metadata>
  <g
     inkscape:label="Layer 1"
     inkscape:groupmode="layer"
     id="layer1"
     transform="translate(0,-271.60002)">
    <path
       style="opacity:1;vector-effect:none;fill:none;fill-opacity:1;stroke:#000000;stroke-width:0.07000913;stroke-linecap:butt;stroke-linejoin:miter;stroke-miterlimit:4;stroke-dasharray:none;stroke-dashoffset:0;stroke-opacity:1"
       d="m 3.815306,275.33077 c 9.45e-5,2.13833 -0.1614597,10.46104 -0.1613313,12.59937 0.1539481,0.38845 -0.1616011,1.82555 0.039019,1.57741 0.1624071,1.11334 -0.013969,1.87058 0.023682,2.99323 0.064281,0.80213 -0.1472683,1.53908 -0.062701,2.34981 -0.036862,0.62205 -0.112261,2.68416 -0.3539273,3.26229"
       id="path3614"
       inkscape:connector-curvature="0"
       sodipodi:nodetypes="cccccc" />
    <path
       style="opacity:1;vector-effect:none;fill:none;fill-opacity:1;stroke:#000000;stroke-width:0.07000913;stroke-linecap:butt;stroke-linejoin:miter;stroke-miterlimit:4;stroke-dasharray:none;stroke-dashoffset:0;stroke-opacity:1"
       d="m 2.7516443,291.68667 c 0.571725,-0.77159 0.8616192,-1.72108 1.5931666,-2.38761 0.7639557,-0.8522 1.2422354,-1.75451 1.8837813,-2.61681 0.5194365,-0.69818 0.8180026,-1.23058 1.5910052,-2.0698 0.255392,-0.36074 3.0769566,-3.36765 3.1374456,-3.84539"
       id="path3620"
       inkscape:connector-curvature="0"
       sodipodi:nodetypes="ccacc" />
    <path
       style="opacity:1;vector-effect:none;fill:none;fill-opacity:1;stroke:#000000;stroke-width:0.07000913;stroke-linecap:butt;stroke-linejoin:miter;stroke-miterlimit:4;stroke-dasharray:none;stroke-dashoffset:0;stroke-opacity:1"
       d="m 10.428017,298.34002 c -0.30693,-0.59459 -2.0868508,-2.62237 -2.3394577,-3.29456 -0.3758176,-0.73616 -1.072649,-1.47466 -1.458701,-2.34955 -0.4306505,-0.67533 -0.7259442,-1.31514 -1.2138935,-1.89358 -0.411375,-0.51393 -0.5185125,-1.1475 -0.9290584,-1.65886"
       id="path3622"
       inkscape:connector-curvature="0"
       sodipodi:nodetypes="ccccc" />
  </g>
</svg>
