<?xml version="1.0" encoding="UTF-8" standalone="no"?>
<!-- Created with Inkscape (http://www.inkscape.org/) -->

<svg
   xmlns:dc="http://purl.org/dc/elements/1.1/"
   xmlns:cc="http://creativecommons.org/ns#"
   xmlns:rdf="http://www.w3.org/1999/02/22-rdf-syntax-ns#"
   xmlns:svg="http://www.w3.org/2000/svg"
   xmlns="http://www.w3.org/2000/svg"
   xmlns:sodipodi="http://sodipodi.sourceforge.net/DTD/sodipodi-0.dtd"
   xmlns:inkscape="http://www.inkscape.org/namespaces/inkscape"
   width="0.5in"
   height="1in"
   viewBox="0 0 12.7 25.4"
   version="1.1"
   id="svg8"
   inkscape:version="0.92.2 (5c3e80d, 2017-08-06)"
   sodipodi:docname="n.svg">
  <defs
     id="defs2" />
  <sodipodi:namedview
     id="base"
     pagecolor="#ffffff"
     bordercolor="#666666"
     borderopacity="1.0"
     inkscape:pageopacity="0.0"
     inkscape:pageshadow="2"
     inkscape:zoom="6.97"
     inkscape:cx="-0.58645791"
     inkscape:cy="21.169785"
     inkscape:document-units="mm"
     inkscape:current-layer="layer1"
     showgrid="false"
     units="in"
     inkscape:window-width="1366"
     inkscape:window-height="705"
     inkscape:window-x="-8"
     inkscape:window-y="-8"
     inkscape:window-maximized="1"
     showguides="false" />
  <metadata
     id="metadata5">
    <rdf:RDF>
      <cc:Work
         rdf:about="">
        <dc:format>image/svg+xml</dc:format>
        <dc:type
           rdf:resource="http://purl.org/dc/dcmitype/StillImage" />
        <dc:title />
      </cc:Work>
    </rdf:RDF>
  </metadata>
  <g
     inkscape:label="Layer 1"
     inkscape:groupmode="layer"
     id="layer1"
     transform="translate(0,-271.60002)">
    <path
       style="opacity:1;vector-effect:none;fill:none;fill-opacity:1;stroke:#000000;stroke-width:0.06771231;stroke-linecap:butt;stroke-linejoin:miter;stroke-miterlimit:4;stroke-dasharray:none;stroke-dashoffset:0;stroke-opacity:1"
       d="m 1.4847209,285.92461 c -0.026089,0.80493 -0.052978,1.67625 -0.1094986,2.40919 -0.056519,0.73292 0.041659,1.2956 -0.019068,1.93934 -0.060727,0.6437 -0.056421,1.19986 -0.1494816,1.87485 -0.034953,1.62042 -0.1658496,3.47999 -0.1498302,4.64932"
       id="path3030"
       inkscape:connector-curvature="0"
       sodipodi:nodetypes="czzcc" />
    <path
       style="opacity:1;vector-effect:none;fill:none;fill-opacity:1;stroke:#000000;stroke-width:0.06771231;stroke-linecap:butt;stroke-linejoin:miter;stroke-miterlimit:4;stroke-dasharray:none;stroke-dashoffset:0;stroke-opacity:1"
       d="m 11.640856,298.34118 c -0.469113,0.12761 -1.091459,0.56398 -1.406594,-1.31273 -0.3151351,-1.8767 0.606651,-10.76691 -0.09042,-11.79327 -0.6970567,-1.02637 -1.5493088,-1.18261 -2.0452166,-1.35708 -0.4959076,-0.17444 -1.1852205,-0.26931 -1.7289793,-0.234 -0.5437585,0.0352 -1.7042104,0.64864 -2.1432292,0.93891 -0.4390187,0.29027 -0.6364213,0.78243 -0.9687141,1.19384 -0.3322928,0.41144 -0.7106256,0.83547 -1.0248908,1.27489 -0.3142654,0.43944 -0.7249154,0.84709 -0.8600193,1.35469"
       id="path3032"
       inkscape:connector-curvature="0"
       sodipodi:nodetypes="czzzzzzzc" />
  </g>
</svg>
