<?xml version="1.0" encoding="UTF-8" standalone="no"?>
<!-- Created with Inkscape (http://www.inkscape.org/) -->

<svg
   xmlns:dc="http://purl.org/dc/elements/1.1/"
   xmlns:cc="http://creativecommons.org/ns#"
   xmlns:rdf="http://www.w3.org/1999/02/22-rdf-syntax-ns#"
   xmlns:svg="http://www.w3.org/2000/svg"
   xmlns="http://www.w3.org/2000/svg"
   xmlns:sodipodi="http://sodipodi.sourceforge.net/DTD/sodipodi-0.dtd"
   xmlns:inkscape="http://www.inkscape.org/namespaces/inkscape"
   width="0.5in"
   height="1in"
   viewBox="0 0 12.7 25.4"
   version="1.1"
   id="svg8"
   inkscape:version="0.92.2 (5c3e80d, 2017-08-06)"
   sodipodi:docname="s.svg">
  <defs
     id="defs2" />
  <sodipodi:namedview
     id="base"
     pagecolor="#ffffff"
     bordercolor="#666666"
     borderopacity="1.0"
     inkscape:pageopacity="0.0"
     inkscape:pageshadow="2"
     inkscape:zoom="6.98"
     inkscape:cx="27.917753"
     inkscape:cy="44.49904"
     inkscape:document-units="mm"
     inkscape:current-layer="layer1"
     showgrid="false"
     units="in"
     inkscape:window-width="1366"
     inkscape:window-height="705"
     inkscape:window-x="-8"
     inkscape:window-y="-8"
     inkscape:window-maximized="1"
     inkscape:snap-global="false" />
  <metadata
     id="metadata5">
    <rdf:RDF>
      <cc:Work
         rdf:about="">
        <dc:format>image/svg+xml</dc:format>
        <dc:type
           rdf:resource="http://purl.org/dc/dcmitype/StillImage" />
        <dc:title />
      </cc:Work>
    </rdf:RDF>
  </metadata>
  <g
     inkscape:label="Layer 1"
     inkscape:groupmode="layer"
     id="layer1"
     transform="translate(0,-271.60002)">
    <path
       style="opacity:1;vector-effect:none;fill:none;fill-opacity:1;stroke:#000000;stroke-width:0.06275817;stroke-linecap:butt;stroke-linejoin:miter;stroke-miterlimit:4;stroke-dasharray:none;stroke-dashoffset:0;stroke-opacity:1"
       d="m 12.959776,283.78741 c 0,0 -2.8766,-1.06004 -4.0084852,-1.29739 -1.1318856,-0.23736 -3.2415383,-0.83372 -4.4471088,-0.61172 -1.2055705,0.22199 -2.5922631,1.03782 -3.1740912,1.72365 -0.58182803,0.68582 -1.1293943,1.52823 -0.9096184,2.42363 0.219776,0.8954 2.0994375,2.51901 3.0299798,3.02194 0.9305421,0.50294 2.176909,0.37981 3.259458,0.48332 1.0825492,0.10349 2.5661584,0.30485 3.5394428,0.65093 1.466531,0.52146 1.761006,0.66729 2.077887,2.07702 0.31688,1.40973 0.300629,1.90791 -0.08397,2.55818 -0.384601,0.65026 -1.492755,1.13804 -2.4362197,1.48517 -0.9434642,0.34712 -1.9536394,0.49706 -3.0840216,0.53959 -1.1303823,0.0425 -2.6079484,-0.0378 -3.595041,-0.34969 -0.9870925,-0.31195 -1.7719551,-0.86713 -2.20018422,-1.30211 -0.42822906,-0.43497 -0.41275822,-0.70118 -0.54994403,-1.06326"
       id="path3666"
       inkscape:connector-curvature="0"
       sodipodi:nodetypes="czzzzzzszzzzzzc" />
  </g>
</svg>
