<?xml version="1.0" encoding="UTF-8" standalone="no"?>
<!-- Created with Inkscape (http://www.inkscape.org/) -->

<svg
   xmlns:dc="http://purl.org/dc/elements/1.1/"
   xmlns:cc="http://creativecommons.org/ns#"
   xmlns:rdf="http://www.w3.org/1999/02/22-rdf-syntax-ns#"
   xmlns:svg="http://www.w3.org/2000/svg"
   xmlns="http://www.w3.org/2000/svg"
   xmlns:sodipodi="http://sodipodi.sourceforge.net/DTD/sodipodi-0.dtd"
   xmlns:inkscape="http://www.inkscape.org/namespaces/inkscape"
   width="0.5in"
   height="1in"
   viewBox="0 0 12.7 25.4"
   version="1.1"
   id="svg8"
   inkscape:version="0.92.2 (5c3e80d, 2017-08-06)"
   sodipodi:docname="x.svg">
  <defs
     id="defs2" />
  <sodipodi:namedview
     id="base"
     pagecolor="#ffffff"
     bordercolor="#666666"
     borderopacity="1.0"
     inkscape:pageopacity="0.0"
     inkscape:pageshadow="2"
     inkscape:zoom="4.92"
     inkscape:cx="-12.277887"
     inkscape:cy="55.164344"
     inkscape:document-units="in"
     inkscape:current-layer="layer1"
     showgrid="false"
     units="in"
     inkscape:window-width="1366"
     inkscape:window-height="705"
     inkscape:window-x="-8"
     inkscape:window-y="-8"
     inkscape:window-maximized="1"
     inkscape:measure-start="0,0"
     inkscape:measure-end="0,0" />
  <metadata
     id="metadata5">
    <rdf:RDF>
      <cc:Work
         rdf:about="">
        <dc:format>image/svg+xml</dc:format>
        <dc:type
           rdf:resource="http://purl.org/dc/dcmitype/StillImage" />
        <dc:title />
      </cc:Work>
    </rdf:RDF>
  </metadata>
  <g
     inkscape:label="Layer 1"
     inkscape:groupmode="layer"
     id="layer1"
     transform="translate(0,-271.60002)">
    <path
       style="opacity:1;vector-effect:none;fill:none;fill-opacity:1;stroke:#000000;stroke-width:0.07067575;stroke-linecap:butt;stroke-linejoin:miter;stroke-miterlimit:4;stroke-dasharray:none;stroke-dashoffset:0;stroke-opacity:1"
       d="m 0.48876705,283.41997 c 0.2676564,0.69487 0.78059345,1.24464 1.17192005,1.8663 0.6303006,1.00131 1.1885416,2.05214 1.8942174,3.00183 0.5175622,0.69653 1.1368854,1.31134 1.7071081,1.96546 0.5350864,0.61381 1.0713096,1.22664 1.6085946,1.83852 0.7391989,0.84184 1.4666307,1.69429 2.2220753,2.52158 0.6154273,0.67396 1.2932185,1.29134 1.8817595,1.9889 0.106079,0.12573 0.218623,0.26257 0.296274,0.39467"
       id="path3701"
       inkscape:connector-curvature="0"
       sodipodi:nodetypes="caaaaaac" />
    <path
       style="opacity:1;vector-effect:none;fill:none;fill-opacity:1;stroke:#000000;stroke-width:0.07067575;stroke-linecap:butt;stroke-linejoin:miter;stroke-miterlimit:4;stroke-dasharray:none;stroke-dashoffset:0;stroke-opacity:1"
       d="m 12.148603,283.28743 c -0.193791,1.05371 -0.798209,1.82879 -1.351015,2.65293 -0.448028,0.66794 -1.0389033,1.22831 -1.5739527,1.8288 -0.7592013,0.85207 -1.5402943,1.68445 -2.3211958,2.51667 -0.8188742,0.87269 -1.6303584,1.75312 -2.4789964,2.59689 -0.5778426,0.57453 -1.2514386,1.05583 -1.777912,1.67777 -0.5478578,0.64721 -1.0677353,1.31585 -1.4164562,2.11302"
       id="path3703"
       inkscape:connector-curvature="0"
       sodipodi:nodetypes="caaaaac" />
  </g>
</svg>
