<?xml version="1.0" encoding="UTF-8" standalone="no"?>
<!-- Created with Inkscape (http://www.inkscape.org/) -->

<svg
   xmlns:dc="http://purl.org/dc/elements/1.1/"
   xmlns:cc="http://creativecommons.org/ns#"
   xmlns:rdf="http://www.w3.org/1999/02/22-rdf-syntax-ns#"
   xmlns:svg="http://www.w3.org/2000/svg"
   xmlns="http://www.w3.org/2000/svg"
   xmlns:sodipodi="http://sodipodi.sourceforge.net/DTD/sodipodi-0.dtd"
   xmlns:inkscape="http://www.inkscape.org/namespaces/inkscape"
   width="0.5in"
   height="1in"
   viewBox="0 0 12.7 25.4"
   version="1.1"
   id="svg8"
   inkscape:version="0.92.2 (5c3e80d, 2017-08-06)"
   sodipodi:docname="y.svg">
  <defs
     id="defs2" />
  <sodipodi:namedview
     id="base"
     pagecolor="#ffffff"
     bordercolor="#666666"
     borderopacity="1.0"
     inkscape:pageopacity="0.0"
     inkscape:pageshadow="2"
     inkscape:zoom="4.92"
     inkscape:cx="-13.903904"
     inkscape:cy="24.715883"
     inkscape:document-units="mm"
     inkscape:current-layer="layer1"
     showgrid="false"
     units="in"
     inkscape:window-width="1366"
     inkscape:window-height="705"
     inkscape:window-x="-8"
     inkscape:window-y="-8"
     inkscape:window-maximized="1"
     inkscape:measure-start="0,0"
     inkscape:measure-end="0,0"
     inkscape:snap-global="false" />
  <metadata
     id="metadata5">
    <rdf:RDF>
      <cc:Work
         rdf:about="">
        <dc:format>image/svg+xml</dc:format>
        <dc:type
           rdf:resource="http://purl.org/dc/dcmitype/StillImage" />
        <dc:title />
      </cc:Work>
    </rdf:RDF>
  </metadata>
  <g
     inkscape:label="Layer 1"
     inkscape:groupmode="layer"
     id="layer1"
     transform="translate(0,-271.60002)">
    <path
       style="opacity:1;vector-effect:none;fill:none;fill-opacity:1;stroke:#000000;stroke-width:0.06367601;stroke-linecap:butt;stroke-linejoin:miter;stroke-miterlimit:4;stroke-dasharray:none;stroke-dashoffset:0;stroke-opacity:1"
       d="m 2.574394,284.1453 c -0.6952623,1.28413 -0.9106096,2.0292 -0.9072175,3.37843 0.00339,1.34923 -0.018338,3.34767 0.170818,4.65232 0.1891557,1.30463 0.7503575,2.75442 1.430432,3.74188 0.6800745,0.98746 1.7737097,0.88214 2.7813999,0.98862 1.0076902,0.10645 1.6378438,0.0253 2.5065877,-0.61706 0.868744,-0.64235 1.7355559,-2.00503 2.1990799,-3.35518 0.463525,-1.35014 0.403756,-3.0212 0.426371,-4.46798 0.02261,-1.44678 -0.196662,-2.76481 -0.266635,-4.17364 -0.03466,-0.69796 -0.411106,2.84311 -0.251707,4.26082 0.159399,1.4177 0.373771,4.77668 0.454867,6.41481 0.08111,1.63812 -0.131551,2.13146 -0.05286,3.88388 0.07869,1.75242 -0.09506,1.05514 -0.02253,3.1525 0.07253,2.09736 -1.0575277,2.92053 -2.0667112,3.72867 -1.009184,0.80811 -2.7064248,1.00374 -3.8388699,0.83073 -1.132445,-0.17301 -2.1098586,-1.12968 -2.7262674,-1.95836 -0.6164088,-0.8287 -0.80917,-1.91758 -1.1191951,-2.86584"
       id="path3709"
       inkscape:connector-curvature="0"
       sodipodi:nodetypes="czzzzzzzszzzzzzzc" />
  </g>
</svg>
